<svg xmlns="http://www.w3.org/2000/svg" width="18.734" height="16.963" viewBox="0 0 18.734 16.963">
  <path id="Path_6425" data-name="Path 6425" d="M1115.121,4629.3a4.768,4.768,0,0,0-3.88-1.147,4.7,4.7,0,0,0-2.159.858,5.863,5.863,0,0,0-1.593,1.7c-.021.033-.046.066-.075.111-.028-.045-.053-.078-.074-.111a5.863,5.863,0,0,0-1.593-1.7,4.7,4.7,0,0,0-2.159-.858,4.768,4.768,0,0,0-3.88,1.147,4.861,4.861,0,0,0-1.645,4.164c.229,3.336,2.536,5.572,4.9,7.633,1.18,1.028,2.369,2.047,3.517,3.112.272.252.541.5.813.756a1.019,1.019,0,0,0,.119.107.961.961,0,0,0,.12-.107c.272-.252.541-.5.813-.756,1.148-1.065,2.337-2.084,3.517-3.112,2.367-2.061,4.673-4.3,4.9-7.633A4.865,4.865,0,0,0,1115.121,4629.3Z" transform="translate(-1098.048 -4628.108)" fill="#9c1a1a"/>
</svg>
