<svg xmlns="http://www.w3.org/2000/svg" width="133.04" height="42.761" viewBox="0 0 133.04 42.761">
    <defs>
        <style>
            .cls-1{fill:#fff}
        </style>
    </defs>
    <g id="Group_65" transform="translate(-616.48 -25.469)">
        <g id="Group_64">
            <g id="Group_39">
                <path id="Path_20" d="M667.025 43.62a3.821 3.821 0 0 0-.309 4.772 10.024 10.024 0 0 1-6.622-5.366 9.746 9.746 0 0 1 1.151-10.961 10.418 10.418 0 0 1 18.3 4.265 10.2 10.2 0 0 1-4.937 11 2.571 2.571 0 0 0-.845.71 3.048 3.048 0 0 1-3.813.95 3.1 3.1 0 0 1-1.656-3.579 2.928 2.928 0 0 1 3.192-2.254 2.1 2.1 0 0 0 1.849-.66 5.536 5.536 0 0 0-.006-8.142 5.741 5.741 0 0 0-8.43.569 5.522 5.522 0 0 0 1.115 8.056c.31.22.639.406 1.011.64z" class="cls-1"/>
                <path id="Path_21" d="M707.259 38.427c0-3.087.016-6.174-.014-9.26-.006-.62.1-.891.8-.849a29.16 29.16 0 0 0 3.143 0c.612-.03.72.207.713.754-.027 2.155.007 4.31-.024 6.465-.007.533.126.683.671.676q3.844-.047 7.688 0c.505 0 .626-.15.621-.634-.025-2.154.022-4.31-.03-6.464-.017-.695.219-.821.839-.79a28 28 0 0 0 2.969 0c.645-.036.837.138.831.809-.033 4.251-.016 8.5-.016 12.755 0 2.01-.024 4.02.015 6.028.01.558-.159.68-.681.66-1.076-.041-2.156-.044-3.232 0-.563.023-.731-.128-.721-.709.037-2.183-.005-4.368.028-6.552.009-.583-.1-.8-.745-.786-2.5.04-5.009.034-7.513 0-.58-.008-.734.16-.725.732.033 2.184-.011 4.369.029 6.552.012.624-.175.79-.779.761a29.115 29.115 0 0 0-3.056 0c-.643.036-.836-.128-.827-.8.039-3.115.016-6.232.016-9.348z" class="cls-1"/>
                <path id="Path_22" d="M656.189 41.648c0 1.28-.014 2.561.008 3.841a1.006 1.006 0 0 1-.4.9 11.155 11.155 0 0 1-11.273 1.593 9.515 9.515 0 0 1-6.468-8.363 9.742 9.742 0 0 1 5.271-10.18c3.966-2.193 7.825-1.63 11.433 1.011a1.894 1.894 0 0 1 .2.167c.541.528 1.736 1.056 1.465 1.6a3.5 3.5 0 0 1-2.652 2.043 3.8 3.8 0 0 1-2.482-.592 5.684 5.684 0 0 0-8.634 3.941 5.763 5.763 0 0 0 4.812 6.413 8.279 8.279 0 0 0 3.434-.285c1.032-.288.473-1.082.608-1.652.148-.626-.385-.521-.7-.6a3.123 3.123 0 0 1-2.333-4.027c.087-.3.272-.247.457-.247 2.27 0 4.54.008 6.81-.012.426 0 .457.189.454.524-.018 1.306-.01 2.615-.01 3.925z" class="cls-1"/>
                <path id="Path_23" d="M746.724 42.119l-6.894-15.95c-.122-.283-.122-.707-.635-.7-1.448.018-2.894.007-4.464.007.458 1.115.85 2.137 1.294 3.134a1.483 1.483 0 0 1-.032 1.312q-3.775 8.587-7.512 17.193a4.334 4.334 0 0 0-.544 1.449 8.222 8.222 0 0 1 1.009 0c2.828.383 4.756-.637 5.5-3.508.123-.476.417-.528.836-.523a47.487 47.487 0 0 0 5.147-.03c1.727-.172 2.719.322 3.191 2.069a2.711 2.711 0 0 0 2.619 1.965c1.061.072 2.131.016 3.284.016-.959-2.197-1.884-4.313-2.799-6.434zm-6.416-1.786c-1.217-.007-2.432 0-3.766 0l2.125-5.154c.682 1.65 1.306 3.191 1.961 4.721.172.406.002.433-.32.433z" class="cls-1"/>
                <path id="Path_24" d="M682.136 38.411a10.267 10.267 0 0 1 15.269-8.948 14.137 14.137 0 0 1 3.051 2.309c.341.335.334.538-.025.816a7.459 7.459 0 0 0-.619.614 3.126 3.126 0 0 1-4.251.494 5.387 5.387 0 0 0-6.15.033 5.273 5.273 0 0 0-2.576 5.434 5.541 5.541 0 0 0 4.206 4.727 5.241 5.241 0 0 0 4.277-.572 3.621 3.621 0 0 1 5.308 1.125c.2.281.093.407-.082.577-3.025 2.925-6.507 4.537-10.759 3.338a10.073 10.073 0 0 1-7.511-8.21 13.334 13.334 0 0 1-.138-1.737z" class="cls-1"/>
                <path id="Path_25" d="M621.632 28.441a1.635 1.635 0 0 1 1.617.7q3.546 5.178 7.076 10.369a8.758 8.758 0 0 1 .435.821c.226-.277.13-.595.13-.877.008-3.435.021-6.87-.011-10.305-.006-.647.154-.862.821-.825 1.074.059 2.154.037 3.23 0 .477-.014.652.1.65.617q-.026 9.519 0 19.039c0 .436-.089.666-.567.581a1.01 1.01 0 0 0-.174 0c-1.28-.008-2.766.384-3.782-.138s-1.554-1.948-2.28-2.994c-2.251-3.247-4.486-6.506-6.744-9.749a2.1 2.1 0 0 1-.407-1.289c.018-1.976.006-3.954.006-5.95z" class="cls-1"/>
                <path id="Path_26" d="M663.857 62.115c0-2.779.022-5.446-.017-8.111-.009-.622.16-.8.767-.756.836.065 1.936-.268 2.445.151.533.439.154 1.58.158 2.411.018 3.843-.007 7.687.022 11.53.005.617-.194.7-.77.78a3.7 3.7 0 0 1-4.131-2.113c-1.622-2.707-3.551-5.229-5.366-7.853-.327.208-.184.494-.185.715-.012 2.8-.033 5.59.012 8.384.012.715-.213.9-.882.849-.806-.067-1.887.258-2.358-.152-.548-.477-.165-1.584-.17-2.415-.021-3.843.006-7.686-.025-11.529-.005-.616.151-.8.766-.76.9.056 1.8.027 2.706.01a1.741 1.741 0 0 1 1.593.863c1.778 2.641 3.578 5.263 5.435 7.996z" class="cls-1"/>
                <path id="Path_27" d="M651.613 67.289q-2.626-5.97-5.23-11.947c-.927-2.117-.931-2.094-3.216-2.1a.9.9 0 0 0-.963.644c-1.273 2.985-2.577 5.96-3.873 8.935-.747 1.718-1.5 3.434-2.307 5.267.862 0 1.532.016 2.2-.005a2.322 2.322 0 0 0 2.189-1.452 7.4 7.4 0 0 0 .372-.879.736.736 0 0 1 .868-.6 29.219 29.219 0 0 0 3.755-.012 1.729 1.729 0 0 1 2.143 1.38 2.187 2.187 0 0 0 2.427 1.575 6.493 6.493 0 0 1 1.133.007c.833.114.751-.251.502-.813zM642.447 62l1.534-3.716c.523 1.271 1.006 2.443 1.532 3.716z" class="cls-1"/>
                <path id="Path_28" d="M622.64 53.261c-1.744 0-3.492.023-5.237-.013-.564-.012-.729.133-.72.711.034 2.241.013 4.483.013 6.724s.014 4.48-.011 6.721c0 .506.082.746.66.7a16.062 16.062 0 0 1 2.093-.007c.494.027.667-.129.648-.635-.033-1.017.028-2.037-.022-3.055-.032-.623.1-.906.795-.831a13.517 13.517 0 0 0 1.92.009 5.163 5.163 0 0 0 4.926-5.289 5.091 5.091 0 0 0-5.065-5.035zm-.41 6.876h-.346c-1.809.012-1.809.012-1.809-1.808 0-1.711 0-1.711 1.725-1.711.145 0 .29-.005.435 0a1.878 1.878 0 0 1 2.046 1.785c0 1.034-.813 1.72-2.051 1.734z" class="cls-1"/>
                <path id="Path_29" d="M682.706 68.23a5.6 5.6 0 0 1-5.024-2.965c-.252-.443-.273-.695.257-1.026a2.639 2.639 0 0 1 3.3.04 2.31 2.31 0 0 0 2.691.2 1.274 1.274 0 0 0 .8-1.15c-.015-.536-.427-.8-.877-.976-1.049-.421-2.125-.784-3.145-1.267a3.952 3.952 0 0 1-2.419-4.537 4.734 4.734 0 0 1 6.569-3.033 5.627 5.627 0 0 1 1.45.958c.394.369 1.18.9 1.021 1.156a2.8 2.8 0 0 1-1.843 1.344 2.693 2.693 0 0 1-1.617-.218 1.821 1.821 0 0 0-1.256-.2c-.433.116-.885.207-.935.755s.342.742.783.887c.823.272 1.656.522 2.461.841A4.659 4.659 0 0 1 688 62.135a4.875 4.875 0 0 1-4.288 6c-.37.053-.747.072-1.006.095z" class="cls-1"/>
                <path id="Path_30" d="M695.072 53.258c1.658 0 3.316.023 4.973-.013.574-.012.841.085.78.741-.073.777.266 1.837-.128 2.276-.459.51-1.533.145-2.339.157-1.628.024-1.629.007-1.629 1.617 0 3.112-.014 6.224.013 9.336.005.562-.125.776-.716.729a11.764 11.764 0 0 0-2 0c-.656.059-.758-.223-.754-.8.023-3.373 0-6.747.026-10.12.005-.588-.106-.814-.743-.775-.956.059-1.919 0-2.878.023-.385.011-.5-.114-.485-.492.041-.865-.254-1.943.16-2.531.351-.5 1.517-.128 2.322-.144 1.134-.023 2.268-.006 3.4-.006z" class="cls-1"/>
                <path id="Path_31" d="M671.217 60.62c0-2.181.034-4.363-.02-6.543-.018-.717.218-.88.869-.828a16.575 16.575 0 0 0 2.006.005c.43-.019.609.084.607.567q-.026 6.849 0 13.7c0 .483-.181.592-.613.578a21.419 21.419 0 0 0-2.18.007c-.547.038-.687-.142-.68-.678.027-2.271.011-4.539.011-6.808z" class="cls-1"/>
                <path id="Path_32" d="M634.231 60.646c0 2.238-.016 4.477.012 6.714.007.554-.116.79-.718.744a16.98 16.98 0 0 0-2.092 0c-.438.02-.613-.089-.611-.57q.022-6.888 0-13.776c0-.37.09-.514.484-.5a21.956 21.956 0 0 0 2.266-.006c.554-.038.676.157.669.684-.026 2.234-.01 4.472-.01 6.71z" class="cls-1"/>
            </g>
            <g id="Group_63">
                <g id="Group_40">
                    <path id="Path_33" d="M621.249 48.742h-4.769V28.421h4.769zm-4.6-.17h4.429V28.591h-4.428z" class="cls-1"/>
                </g>
                <g id="Group_41">
                    <path id="Rectangle_39" d="M0 0H4.599V0.17H0z" class="cls-1" transform="translate(616.565 29.879)"/>
                </g>
                <g id="Group_42">
                    <path id="Rectangle_40" d="M0 0H2.565V0.882H0z" class="cls-1" transform="translate(616.565 29.505)"/>
                </g>
                <g id="Group_43">
                    <path id="Rectangle_41" d="M0 0H4.599V0.17H0z" class="cls-1" transform="translate(616.565 31.276)"/>
                </g>
                <g id="Group_44">
                    <path id="Rectangle_42" d="M0 0H2.565V0.882H0z" class="cls-1" transform="translate(616.565 30.902)"/>
                </g>
                <g id="Group_45">
                    <path id="Rectangle_43" d="M0 0H4.599V0.17H0z" class="cls-1" transform="translate(616.565 32.673)"/>
                </g>
                <g id="Group_46">
                    <path id="Rectangle_44" d="M0 0H2.565V0.882H0z" class="cls-1" transform="translate(616.565 32.299)"/>
                </g>
                <g id="Group_47">
                    <path id="Rectangle_45" d="M0 0H4.599V0.17H0z" class="cls-1" transform="translate(616.565 39.858)"/>
                </g>
                <g id="Group_48">
                    <path id="Rectangle_46" d="M0 0H2.565V0.882H0z" class="cls-1" transform="translate(616.565 39.484)"/>
                </g>
                <g id="Group_49">
                    <path id="Rectangle_47" d="M0 0H4.599V0.17H0z" class="cls-1" transform="translate(616.565 41.255)"/>
                </g>
                <g id="Group_50">
                    <path id="Rectangle_48" d="M0 0H2.565V0.882H0z" class="cls-1" transform="translate(616.565 40.881)"/>
                </g>
                <g id="Group_51">
                    <path id="Rectangle_49" d="M0 0H4.599V0.17H0z" class="cls-1" transform="translate(616.565 42.652)"/>
                </g>
                <g id="Group_52">
                    <path id="Rectangle_50" d="M0 0H4.599V0.17H0z" class="cls-1" transform="translate(616.565 44.18)"/>
                </g>
                <g id="Group_53">
                    <path id="Rectangle_51" d="M0 0H2.565V0.882H0z" class="cls-1" transform="translate(616.565 42.278)"/>
                </g>
                <g id="Group_54">
                    <path id="Rectangle_52" d="M0 0H4.599V0.17H0z" class="cls-1" transform="translate(616.565 35.631)"/>
                </g>
                <g id="Group_55">
                    <path id="Rectangle_53" d="M0 0H2.565V0.882H0z" class="cls-1" transform="translate(616.565 35.257)"/>
                </g>
                <g id="Group_56">
                    <path id="Rectangle_54" d="M0 0H4.599V0.17H0z" class="cls-1" transform="translate(616.565 37.028)"/>
                </g>
                <g id="Group_57">
                    <path id="Rectangle_55" d="M0 0H2.565V0.882H0z" class="cls-1" transform="translate(616.565 36.654)"/>
                </g>
                <g id="Group_58">
                    <path id="Rectangle_56" d="M0 0H4.599V0.17H0z" class="cls-1" transform="translate(616.565 45.584)"/>
                </g>
                <g id="Group_59">
                    <path id="Rectangle_57" d="M0 0H2.565V0.882H0z" class="cls-1" transform="translate(616.565 45.21)"/>
                </g>
                <g id="Group_60">
                    <path id="Rectangle_58" d="M0 0H4.599V0.17H0z" class="cls-1" transform="translate(616.565 46.981)"/>
                </g>
                <g id="Group_61">
                    <path id="Rectangle_59" d="M0 0H2.565V0.882H0z" class="cls-1" transform="translate(616.565 46.607)"/>
                </g>
                <g id="Group_62">
                    <path id="Rectangle_60" d="M0 0H4.599V0.17H0z" class="cls-1" transform="translate(616.565 38.425)"/>
                </g>
            </g>
        </g>
    </g>
</svg>
